<svg width="53" height="65" viewBox="0 0 53 65" fill="none" xmlns="http://www.w3.org/2000/svg">
<rect width="14.6457" height="36.5" rx="6" transform="matrix(0.835737 0.54913 -0.540065 0.841623 19.7124 26.2383)" fill="#C4B1B1"/>
<path d="M46.1228 47.1057C43.4617 36.8116 36.1437 37.2991 32.8174 38.8296C28.4179 35.8884 18.716 29.4125 15.1039 27.039C14.4013 21.3516 8.72177 21.4713 7.31652 21.8505C6.70758 22.3933 4.94534 22.0766 4.14034 21.8505C4.28172 21.9951 3.98059 21.8862 1.64497 20.2941C-0.690646 18.7021 0.235386 16.283 0.990354 15.2725C3.54702 11.2533 8.89314 2.81824 9.82433 1.23139C10.7555 -0.355468 12.7127 -0.0762788 13.5749 0.261673C13.7617 0.379221 14.532 0.808265 16.1185 1.58406C17.7049 2.35986 17.9579 3.96432 17.886 4.66957C18.3689 10.6291 23.8784 10.5042 26.9243 10.5042C30.9971 13.1623 40.7185 19.7349 47.0215 24.7608C53.6511 31.7225 52.4429 42.5709 51.1124 46.4255C49.7818 50.28 46.6772 49.203 46.1228 47.1057Z" fill="#C87996"/>
</svg>
