<svg width="518" height="127" viewBox="0 0 518 127" fill="none" xmlns="http://www.w3.org/2000/svg">
<path d="M455.672 0C489.875 0.000254499 517.603 28.2885 517.603 63.1836C517.602 98.0786 489.875 126.367 455.672 126.367C438.493 126.367 422.948 119.231 411.729 107.707C408.947 104.849 404.154 104.849 401.373 107.707C390.154 119.231 374.61 126.367 357.432 126.367C340.253 126.367 324.708 119.231 313.489 107.707C310.707 104.849 305.914 104.849 303.132 107.707C291.914 119.231 276.37 126.367 259.191 126.367C241.842 126.367 226.159 119.088 214.916 107.361C212.12 104.446 207.241 104.446 204.446 107.361C193.203 119.088 177.521 126.367 160.172 126.367C142.993 126.367 127.448 119.231 116.229 107.707C113.447 104.849 108.654 104.849 105.873 107.707C94.6539 119.231 79.1098 126.367 61.9316 126.367C27.7281 126.367 0.000115199 98.0787 0 63.1836C0 28.2884 27.728 0 61.9316 0C79.1097 0.000127818 94.6539 7.13571 105.873 18.6598C108.654 21.517 113.447 21.517 116.229 18.6598C127.448 7.13543 142.993 0 160.172 0C177.521 0.000129088 193.203 7.2785 204.446 19.005C207.241 21.9206 212.12 21.9206 214.916 19.005C226.159 7.27822 241.842 0 259.191 0C276.369 0.000127818 291.914 7.13571 303.132 18.6598C305.914 21.517 310.707 21.517 313.489 18.6598C324.708 7.13543 340.253 0 357.432 0C374.61 0.000127818 390.154 7.13571 401.373 18.6598C404.154 21.517 408.947 21.517 411.729 18.6598C422.948 7.13543 438.493 0 455.672 0Z" fill="#F8F4E8"/>
</svg>
