<svg width="92" height="92" viewBox="0 0 92 92" fill="none" xmlns="http://www.w3.org/2000/svg">
<path d="M44.5302 0.554661C45.1265 -0.184834 46.2534 -0.18494 46.8496 0.554661L54.373 9.88865C54.7796 10.393 55.4661 10.5762 56.0703 10.3427L67.2529 6.02146C68.1391 5.67912 69.1152 6.24298 69.2617 7.18161L71.1103 19.0273C71.2104 19.6671 71.7127 20.1686 72.3525 20.2685L84.1982 22.1181C85.1367 22.2648 85.6998 23.2408 85.3574 24.1269L81.0361 35.3095C80.8027 35.9137 80.9869 36.5993 81.4912 37.0058L90.8252 44.5302C91.5644 45.1265 91.5645 46.2534 90.8252 46.8496L81.4912 54.373C80.9869 54.7796 80.8026 55.4661 81.0361 56.0703L85.3574 67.2529C85.6998 68.139 85.1367 69.115 84.1982 69.2617L72.3525 71.1103C71.7126 71.2103 71.2103 71.7126 71.1103 72.3525L69.2617 84.1982C69.115 85.1367 68.139 85.6998 67.2529 85.3574L56.0703 81.0361C55.4661 80.8026 54.7796 80.9869 54.373 81.4912L46.8496 90.8252C46.2534 91.5645 45.1265 91.5644 44.5302 90.8252L37.0058 81.4912C36.5993 80.9869 35.9137 80.8027 35.3095 81.0361L24.1269 85.3574C23.2408 85.6998 22.2648 85.1367 22.1181 84.1982L20.2685 72.3525C20.1686 71.7127 19.6671 71.2104 19.0273 71.1103L7.18161 69.2617C6.24298 69.1152 5.67912 68.1391 6.02146 67.2529L10.3427 56.0703C10.5762 55.4661 10.393 54.7796 9.88865 54.373L0.554661 46.8496C-0.18494 46.2534 -0.184834 45.1265 0.554661 44.5302L9.88865 37.0058C10.3928 36.5993 10.5762 35.9137 10.3427 35.3095L6.02146 24.1269C5.67902 23.2407 6.24294 22.2647 7.18161 22.1181L19.0273 20.2685C19.6669 20.1685 20.1685 19.6669 20.2685 19.0273L22.1181 7.18161C22.2647 6.24294 23.2407 5.67902 24.1269 6.02146L35.3095 10.3427C35.9137 10.5762 36.5993 10.3928 37.0058 9.88865L44.5302 0.554661ZM63.498 24.7343C59.0158 22.2795 57.0048 21.6705 56.791 28.5947C55.9773 32.7607 54.9152 32.8533 52.0361 30.789C50.3518 29.5825 47.185 28.5947 45 28.5947C35.2991 28.5948 29.338 35.2252 26.4804 49.1914C25.5881 53.5556 24.1237 58.5289 23.2256 60.2451C21.9038 62.7729 22.0799 63.7262 24.1543 65.2783C31.0032 68.0083 56.1562 70.472 56.1562 65.3926C56.1558 64.6577 54.734 64.6379 53.8203 64.3008C53.1731 64.0619 51.9121 63.4487 51.2314 63.2666C46.7308 62.0612 49.077 52.0639 53.8369 52.0634C55.7801 52.0634 58.9915 52.8159 60.0898 56.0009C60.7854 59.0395 60.8245 59.648 60.8427 60.9804C60.8727 63.184 59.9242 64.3355 61.875 63.2666C69.7359 58.9617 72.2167 42.6783 63.498 38.4375C59.9856 35.6104 59.9213 36.4029 62.7656 33.7695C67.5155 29.0458 67.0935 26.7036 63.498 24.7343Z" fill="#C87996"/>
</svg>
