<svg width="82" height="75" viewBox="0 0 82 75" fill="none" xmlns="http://www.w3.org/2000/svg">
<path d="M48.7222 10.9033C64.7704 19.2181 66.4797 26.3738 65.4658 43.3806C65.4622 43.4412 65.456 43.5015 65.4522 43.5618C72.0077 45.1964 71.2923 49.3089 69.9692 52.9032C68.8665 55.8989 63.6113 57.6539 61.1378 57.3635C54.1511 67.0162 40.1994 65.956 29.1795 62.6328C20.1585 59.3123 13.3254 56.2666 11.4846 48.3003C11.2566 48.2515 11.028 48.1989 10.8003 48.1379C6.2493 46.7805 3.66589 41.9671 5.08328 38.1155C5.98652 35.098 8.98503 33.5522 12.3778 33.717C12.9031 31.5801 13.5824 29.2617 14.4299 26.7427C19.5255 12.8995 34.879 5.80777 48.7222 10.9033Z" fill="#C4B1B1"/>
<path d="M31.1955 49.9646C30.8868 54.2071 39.6109 58.8309 43.2736 52.1521" stroke="#C87996" stroke-width="2.28529" stroke-linecap="round"/>
<circle cx="27.9021" cy="39.5608" r="3.67602" fill="#C87996"/>
<circle cx="49.3579" cy="43.2366" r="3.67602" fill="#C87996"/>
<path d="M14.0608 35.7154C13.5023 34.9279 11.761 34.161 10.0083 33.8909C11.9672 33.4049 12.803 32.4672 12.803 31.6571C14.0712 23.2286 22.2293 7.05251 43.8572 9.5456C46.4635 6.22637 50.3473 3.71013 56.8885 3.71011C60.9383 3.39324 68.8359 7.36689 69.8264 17.0017C69.8264 25.4305 70.0936 41.2646 76.1415 42.8291C77.5709 43.1312 80.6595 43.302 81.5792 41.5679C81.5792 44.8194 81.5792 55.8386 69.5665 53.6709V48.4925C69.2599 46.8265 67.6927 43.5429 63.8762 43.7356C61.0498 44.2855 60.2326 45.1851 60.1402 45.7089V45.9033C60.1286 45.847 60.1274 45.7816 60.1402 45.7089V37.2324C57.8171 36.0439 52.4829 33.7 49.7316 33.8331V24.6873C48.7969 26.147 46.9486 29.8422 47.0332 32.9462C42.5687 31.6571 40.3744 29.7741 29.5934 28.9745C30.3119 25.5448 31.6058 21.5159 32.1629 19.9303C30.7791 20.4057 27.7635 22.8801 26.7715 28.9745H17.2285C16.6984 29.5449 15.195 30.3478 14.0608 35.7154Z" fill="#C87996"/>
</svg>
