<svg width="310" height="310" viewBox="0 0 310 310" fill="none" xmlns="http://www.w3.org/2000/svg">
<g filter="url(#filter0_d_38_1809)">
<path d="M142.052 67.5772C143.069 64.4114 147.28 63.7967 149.16 66.5398L181.196 113.295C181.944 114.387 183.185 115.038 184.509 115.034L241.186 114.848C244.511 114.837 246.397 118.652 244.369 121.287L209.802 166.203C208.994 167.253 208.758 168.633 209.172 169.891L226.863 223.737C227.901 226.896 224.855 229.869 221.722 228.754L168.323 209.759C167.075 209.315 165.689 209.517 164.62 210.299L118.877 243.764C116.193 245.727 112.425 243.749 112.517 240.425L114.081 183.769C114.118 182.446 113.497 181.19 112.423 180.415L66.461 147.252C63.7644 145.306 64.4813 141.111 67.6709 140.171L122.037 124.151C123.307 123.777 124.31 122.798 124.715 121.538L142.052 67.5772Z" fill="#F8F4E8" fill-opacity="0.01" shape-rendering="crispEdges"/>
</g>
<defs>
<filter id="filter0_d_38_1809" x="4.57764e-05" y="-0.000198364" width="310.006" height="309.344" filterUnits="userSpaceOnUse" color-interpolation-filters="sRGB">
<feFlood flood-opacity="0" result="BackgroundImageFix"/>
<feColorMatrix in="SourceAlpha" type="matrix" values="0 0 0 0 0 0 0 0 0 0 0 0 0 0 0 0 0 0 127 0" result="hardAlpha"/>
<feOffset/>
<feGaussianBlur stdDeviation="32.4"/>
<feComposite in2="hardAlpha" operator="out"/>
<feColorMatrix type="matrix" values="0 0 0 0 0.784314 0 0 0 0 0.47451 0 0 0 0 0.588235 0 0 0 0.62 0"/>
<feBlend mode="normal" in2="BackgroundImageFix" result="effect1_dropShadow_38_1809"/>
<feBlend mode="normal" in="SourceGraphic" in2="effect1_dropShadow_38_1809" result="shape"/>
</filter>
</defs>
</svg>
